<svg width="512" height="512" viewBox="0 0 512 512" fill="none" xmlns="http://www.w3.org/2000/svg">
<path d="M409.105 333.507C391.926 356.747 365.618 372.254 335.933 374.517C335.009 374.582 334.084 374.646 333.147 374.698C298.339 376.431 272.046 360.55 254.61 345.807C223.757 329.472 199.617 325.359 185.493 321.803C175.221 319.216 166.234 314.043 162.382 311.456C158.967 309.426 152.098 304.718 146.975 295.937C141.235 286.095 140.902 276.693 140.991 272.697C143.983 272.296 147.848 271.856 152.367 271.571C156.065 271.339 159.647 271.248 163.666 271.235C194.84 271.196 219.017 272.722 236.607 280.534C246.121 284.75 254.942 290.363 262.8 297.204C272.904 306.024 293.563 319.966 319.024 315.207C322.259 314.599 325.366 313.797 328.358 312.814C337.525 311.495 353.202 310.435 371.666 315.336C389.191 319.992 401.8 328.036 409.105 333.507Z" fill="#0A60B5" stroke="black" stroke-width="8" stroke-miterlimit="10"/>
<path d="M406.82 173.454C399.075 163.42 389.662 153.934 378.544 147.462C366.696 140.568 351.578 134.631 333.292 133.023C288.618 129.091 258.074 153.87 252.509 158.556C245.584 165.054 217.887 188.046 184.547 200.812C178.739 202.881 167.557 207.77 157.62 218.685C149.759 227.316 145.912 236.15 144.027 241.64C148.002 242.188 152.106 242.584 156.337 242.827C188.664 244.627 216.438 244.806 234.608 235.907C246.61 230.035 257.138 221.673 266.216 211.881C282.578 194.225 306.441 186.348 328.163 191.748C338.139 193.14 355.514 194.199 375.608 188.046C389.482 183.795 399.819 178.446 406.82 173.454Z" fill="#0A60B5" stroke="black" stroke-width="8" stroke-miterlimit="10"/>
<path d="M103.656 180.905C91.263 174.535 81.5884 167.187 74.9897 161.435C71.3011 158.217 65.5703 160.856 65.5703 165.771V205.96C65.5703 207.711 66.3616 209.371 67.7146 210.452L84.1793 226.293C85.0472 219.923 86.9107 211.262 91.0971 201.688C95.041 192.654 99.7762 185.744 103.656 180.905Z" fill="#0A60B5" stroke="black" stroke-width="8" stroke-miterlimit="10"/>
<path d="M368.734 270.592C370.618 264.787 371.663 258.698 371.818 252.493C371.947 247.591 371.38 245.759 370.528 241.012C379.289 239.541 390.232 237.142 400.206 234.561C410.748 231.84 418.542 228.679 427.304 225.531C428.581 231.659 429.923 234.639 430.388 239.18C430.826 243.463 431.097 247.9 431.175 252.493C431.407 266.761 429.665 279.7 426.981 291.039C418.723 286.756 408.916 282.318 397.625 278.423C387.122 274.785 377.354 272.308 368.734 270.592Z" fill="#0A60B5" stroke="black" stroke-width="8" stroke-miterlimit="10"/>
<path d="M74.6068 355.448C70.8288 358.191 65.5703 355.487 65.5703 350.786V301.427C65.5703 299.933 66.1447 298.517 67.1402 297.461C67.638 296.933 68.0975 296.637 68.3017 296.521L84.6133 289.516C85.813 296.057 87.7914 303.887 91.0971 312.412C94.9644 322.379 99.5592 330.453 103.656 336.595C93.9688 342.88 84.2814 349.164 74.6068 355.448Z" fill="#0A60B5" stroke="black" stroke-width="8" stroke-miterlimit="10"/>
<path fill-rule="evenodd" clip-rule="evenodd" d="M179.649 139.803C212.273 138.184 236.669 151.849 249.244 160.981C239.725 169.389 213.966 189.679 183.499 201.397C181.444 202.132 178.717 203.221 175.61 204.807C153.564 215.666 140.455 237.306 139.87 260.424C139.772 264.315 139.97 268.192 140.485 272.001C140.429 272.009 140.374 272.016 140.318 272.024C140.229 275.989 140.562 285.318 146.298 295.083C151.418 303.796 158.283 308.467 161.697 310.481C163.391 311.61 166.078 313.237 169.431 314.922C173.371 317.021 177.74 318.781 182.559 320.143C183.296 320.357 184.042 320.559 184.794 320.747C186.548 321.185 188.458 321.639 190.52 322.128C205.056 325.578 227.082 330.805 254.088 345C256.815 347.289 259.755 349.596 262.906 351.852C261.949 352.709 261.143 353.458 260.491 354.073C254.922 358.782 224.356 383.689 179.649 379.737C161.351 378.12 146.209 372.153 134.365 365.224C114.411 353.559 99.3333 335.107 91.108 313.51C85.8083 299.588 81.1888 281.584 80.8551 260.398C80.56 242.305 83.46 226.368 87.4123 213.151C99.513 172.768 134.801 143.152 176.865 139.982L176.865 139.982L176.865 139.982C177.789 139.918 178.713 139.854 179.649 139.803ZM408.148 332.266C400.825 326.841 388.261 318.92 370.86 314.331C352.407 309.468 336.739 310.52 327.577 311.829C324.587 312.804 321.482 313.599 318.248 314.203C292.802 318.925 272.155 305.092 262.056 296.34C260.093 294.643 258.069 293.022 255.989 291.48C262.786 285.507 270.259 280.352 278.405 276.349C296.588 267.418 324.382 267.597 356.732 269.394C401.311 271.883 432.108 293.12 444.401 302.873C445.774 303.963 446.557 305.606 446.557 307.351V347.426C446.557 352.34 440.795 354.971 437.086 351.75C430.442 345.997 420.67 338.639 408.148 332.266ZM265.226 212.522C262.303 215.689 259.23 218.707 256.006 221.54C262.249 226.172 268.996 230.093 276.134 233.233C293.714 240.983 317.876 242.498 349.033 242.459C394.728 242.395 428.373 225.187 443.81 215.82C445.517 214.78 446.557 212.933 446.557 210.931V161.745C446.557 157.062 441.27 154.367 437.471 157.1C428.48 163.572 415.109 171.832 397.866 178.329C391.656 181.989 383.918 185.727 374.696 188.565C354.589 194.75 337.201 193.685 327.218 192.286C305.48 186.858 281.6 194.776 265.226 212.522Z" fill="#E11312"/>
</svg>