<svg xmlns="http://www.w3.org/2000/svg" viewBox="0 0 24 24"><path fill="#339933" d="M12 1.85c-.27 0-.55.07-.78.2l-7.44 4.3c-.48.28-.78.8-.78 1.36v8.58c0 .56.3 1.08.78 1.36l1.95 1.12c.95.46 1.27.45 1.7.45c1.38 0 2.17-.84 2.17-2.3V8.14c0-.12-.1-.22-.22-.22H8.5c-.12 0-.22.1-.22.22v8.07c0 .65-.67 1.3-1.77.75L4.45 15.75c-.07-.04-.12-.13-.12-.21V7.96c0-.08.05-.17.12-.21l7.44-4.3c.07-.04.15-.04.22 0l7.44 4.3c.07.04.12.13.12.21v8.58c0 .08-.05.17-.12.21l-7.44 4.3c-.07.04-.15.04-.22 0L10.2 19.7c-.06-.03-.13-.03-.19 0l-1.76 1.04c-.09.05-.1.16-.02.23l3.02 1.79c.24.14.51.21.78.21s.55-.07.78-.21l7.44-4.3c.48-.28.78-.8.78-1.36V7.71c0-.56-.3-1.08-.78-1.36l-7.44-4.3c-.23-.13-.51-.2-.78-.2zM16.65 7.7c-1.38 0-2.29.6-2.29 2.05c0 1.39.54 2.11 2.33 2.84c1.79.73 2.37 1.03 2.37 1.95c0 .92-.74 1.35-1.94 1.35c-.92 0-1.74-.3-2.32-.67l-.37-.22c-.08-.05-.18-.03-.23.05l-.82 1.15c-.05.07-.03.17.04.22l.41.25c.87.52 1.97.83 3.29.83c2.28 0 3.56-1.08 3.56-2.96c0-1.61-.72-2.18-2.52-2.91c-1.8-.73-2.19-.91-2.19-1.63c0-.58.42-.92 1.29-.92c.83 0 1.54.26 2.05.58l.37.23c.08.05.18.03.23-.05l.82-1.14c.05-.07.03-.17-.04-.22l-.41-.26c-.77-.49-1.86-.86-3.08-.86z"/></svg>
