<?xml version="1.0" encoding="UTF-8"?> <!-- Generator: Adobe Illustrator 24.1.3, SVG Export Plug-In . SVG Version: 6.00 Build 0) --> <svg xmlns="http://www.w3.org/2000/svg" xmlns:xlink="http://www.w3.org/1999/xlink" version="1.1" id="Layer_1" x="0px" y="0px" viewBox="0 0 182.8 182.8" style="enable-background:new 0 0 182.8 182.8;" xml:space="preserve"> <style type="text/css"> .st0{fill:url(#SVGID_1_);} .st1{fill-rule:evenodd;clip-rule:evenodd;fill:#FFFFFF;} .st2{fill:#FFFFFF;} </style> <linearGradient id="SVGID_1_" gradientUnits="userSpaceOnUse" x1="163.6143" y1="-5.8576" x2="22.3534" y2="186.2572" gradientTransform="matrix(1 0 0 -1 0 183.8898)"> <stop offset="0" style="stop-color:#491B89"></stop> <stop offset="1" style="stop-color:#6B39B2"></stop> </linearGradient> <circle class="st0" cx="91.3" cy="91.4" r="91"></circle> <g> <g> <path class="st1" d="M141.2,92.6l-33.5,6.1c-0.8,1.1-2.9,2.9-3.9,3.4c-4.2,2.1-7.1,1.5-9.6,0.9c-1.6-0.4-2.5-0.6-3.8-1.2l-8.2,1.1 l5,41.4l57.3-10.3L141.2,92.6z M90.1,140.3l-0.5-4.5l9.4-14.3l10.6,3.1l9.1-15.3l11,7.2l8.3-17.5l3,31.8L90.1,140.3z"></path> </g> </g> <path class="st2" d="M120.7,79.6c-1-3.1-6-9.4-6.3-9.7c-1.3-1.2,0.2-5.9-2.3-11c-2.6-5.4-9.5-11-12.5-13.4c0.9,0.6,6.3,2.8,8.8,5.9 c0.2-0.3,0.3-2,0.5-2.4c-2.2-2.8-2.3-7.9-2.3-9.2c0-2.4-1.2-5.1-1.2-5.3c0.1,0.1,2.2,1.8,2.7,4.7c0.7,3.5,2.1,6.3,3.9,8.6 c3.5,4.4,6.7,6.6,8.3,5c1.9-2-1.9-10.7-6.9-15.5c-5.8-5.7-7.3-4.9-10.7-3.7c-2.7,1-4.2,8.7-11.2,8.5c-1.2-0.1-4.3-0.2-5.8-0.2 c0.7-1,1.4-1.9,1.5-2c-0.1,0.1-2.4,1-4.4,2.2l-0.2-0.2c0.7-1.4,1.4-2.3,1.4-2.3s-1.9,1.1-3.6,2.5c0.3-1.7,1.5-2.8,1.5-2.8 s-2.4,0.4-5.4,3.8c-3.5,0.9-4.3,1.6-7,2.8c-4.5-1-6.6-2.6-8.6-5.5c-1.5-2.2-4.3-2.6-7.1-1.4c-4.1,1.7-9.2,4-9.2,4s1.7-0.1,3.4,0 c-2.4,0.9-4.7,2.2-4.7,2.2s1.1,0,2.5,0c-1,0.8-1.5,1.2-2.4,1.8c-2.2,1.6-4,3.4-4,3.4s1.5-0.7,2.8-1.1c-0.9,2.1-2.8,3.7-2.4,6.3 c0.3,2.4,3.3,7.3,7,10.3c0.3,0.3,5.5,5.1,9.4,3.1c3.9-2,5.4-3.7,6.1-6.4c0.8-3.1,0.3-5.4-1.3-12.1c-0.5-2.2-1.9-6.7-2.6-8.9l0.2-0.1 c1.3,2.7,4.5,9.8,5.9,14.6c2.1,7.4,1.4,11.2,0.5,12.6c-2.8,4.2-10.1,4.7-13.4,2.4c-0.5,8,1.3,11.5,1.9,13.3c-0.3,2,1,5.8,1,5.8 s0.1-1.7,0.8-2.6c0.2,2,1.2,4.4,1.2,4.4s-0.1-1.5,0.4-2.8c0.7,1.1,1.1,1.4,1.8,2.2c0.6,2.2,1.9,3.8,1.9,3.8s-0.2-1.2-0.1-2.4 c3,2.9,3.5,7.2,3.9,10.4c0.8,9-14.1,16.1-17,21.7c-2.2,3.3-3.5,8.6,0.2,11.7c2.7,2.2,4.3,4,5.3,5.4l5,7.5c6.2,4.3,13.8,2.3,16.4-1.3 c3.7-5.1,2.7-9.9,1.4-14.4c-1.1-3.5-4-9.4-7.5-11.7c-3.7-2.3-7.2-2.7-10.2-2.4l0.3-0.3c4.3-0.9,8.9-0.4,12.2,1.7 c3.7,2.4,7.1,6.5,8.9,12.8c2-0.3,2.3-0.4,4.2-0.7l-4.2-32.4l8.8-1c-4.1-2.7-8.4-6.5-10.3-8.6c-0.3-0.2-0.3-1.3-0.3-1.3 c1.7,1.3,8.7,6.3,16.1,8.6c2.6,0.8,6.6,1.1,10.1-0.9c2.7-1.5,5.9-4.1,7.8-6.8l0.3,0.6c0,0.4-0.9,2.4-1.3,3.1 c0.8,0.5,1.4,0.6,2.3,0.8l6.1-1C120.8,90.8,122.3,85.1,120.7,79.6z M87.5,71.3c-1.3,0.2-2.8,0.5-4.7,1.1c-1.1,0.4-2.1,0.8-2.9,1.2 c-0.2-0.1-0.5-0.3-0.8-0.6c-2.9-2.5-2.8-7,0.2-9c4.1-2.8,9.4-1.7,8.5-0.9c-1.7,1.6,0.6,1.1,0.8,4.1C88.8,69.4,88.1,70.7,87.5,71.3z M108.6,59.1c3.8,1.8,3.3,5.2,3.4,7.2c0,0.6,0,1,0,1.2c-0.5-0.3-1.4-0.5-2.7-0.4c-0.4,0-0.8,0.1-1.1,0.1c-1.4-0.8-2.3-2.2-3-3.8 L105,63l-0.1-0.2l0-0.1c-0.4-1.3-0.1-1.6,0-2c0.2-0.4,0.9-0.8-0.1-1.1c-0.1,0-0.2-0.1-0.3-0.1C105.2,58.6,107.2,58.4,108.6,59.1z M116,83.1c-1,2.3-2.4,4.8-4,5c-2.6,0.3-5.1-1.1-7.9-3.2c-1-0.7-1.6-2.6-0.3-3.6c0.7-0.6,4.1-1.7,7.3-2c1.7-0.2,4-0.3,4.5,0 C116.7,79.8,116.7,81.5,116,83.1z"></path> </svg> 